<svg xmlns="http://www.w3.org/2000/svg" viewBox="0 0 173.13 185.58"><defs><style>.a{fill:#fff;}</style></defs><title>qiitadon-favicon</title><path class="a" d="M84.35,35.93A34.69,34.69,0,1,0,119,70.66v0A34.69,34.69,0,0,0,84.35,35.93Z" transform="translate(0)"/><path class="a" d="M173.12,60.94c0-40.27-26.38-52.07-26.38-52.07C133.44,2.76,110.6.19,86.87,0h-.58C62.56.19,39.74,2.76,26.44,8.87c0,0-26.39,11.8-26.39,52.07,0,9.22-.18,20.24.12,31.93,1,39.38,7.22,78.19,43.62,87.82a138,138,0,0,0,42.81,4.74c21.05-1.17,32.86-7.51,32.86-7.51l-.69-15.28a107.11,107.11,0,0,1-31.94,4.17c-16.73-.58-34.4-1.81-37.11-22.36a41.08,41.08,0,0,1-.38-5.76,215.6,215.6,0,0,0,37.26,5c12.73.59,24.67-.74,36.8-2.19,23.25-2.78,43.5-17.11,46-30.2C173.46,90.64,173.12,60.94,173.12,60.94Zm-45.43,63.55-15.27-15.24a47.5,47.5,0,0,1-28,9.24C56,118.49,36.24,95.93,36.24,71.1c0-28.58,22.58-48.16,47.4-48.16,28.45,0,48.15,22.58,48.15,47.4a48.51,48.51,0,0,1-9.94,29.73L137,115.18Z" transform="translate(0)"/></svg>
